<svg width="1097" height="1809" xmlns="http://www.w3.org/2000/svg" xmlns:xlink="http://www.w3.org/1999/xlink" xml:space="preserve" overflow="hidden"><defs><clipPath id="clip0"><rect x="402" y="433" width="1097" height="1809"/></clipPath></defs><g clip-path="url(#clip0)" transform="translate(-402 -433)"><rect x="402" y="433" width="1097" height="1809" fill="#FFFFFF"/><g><path d="M0 0 0.000360892 1513" stroke="#000000" stroke-width="3.4375" stroke-linejoin="round" stroke-miterlimit="10" fill="none" fill-rule="evenodd" transform="matrix(1 0 0 -1 503.5 1950.5)"/></g><g><path d="M493.516 1950.5 503.5 1950.5M493.516 1886.56 503.5 1886.56M493.516 1821.56 503.5 1821.56M493.516 1757.56 503.5 1757.56M493.516 1693.56 503.5 1693.56M493.516 1628.55 503.5 1628.55M493.516 1564.55 503.5 1564.55M493.516 1500.55 503.5 1500.55M493.516 1435.55 503.5 1435.55M493.516 1371.55 503.5 1371.55M493.516 1306.54 503.5 1306.54M493.516 1242.54 503.5 1242.54M493.516 1178.54 503.5 1178.54M493.516 1113.54 503.5 1113.54M493.516 1049.53 503.5 1049.53M493.516 985.532 503.5 985.532M493.516 920.53 503.5 920.53M493.516 856.528 503.5 856.528M493.516 791.526 503.5 791.526M493.516 727.524 503.5 727.524M493.516 663.522 503.5 663.522M493.516 598.52 503.5 598.52M493.516 534.518 503.5 534.518M493.516 470.5 503.5 470.5M490.5 1950.5 503.5 1950.5M490.5 1628.55 503.5 1628.55M490.5 1306.54 503.5 1306.54M490.5 985.532 503.5 985.532M490.5 663.522 503.5 663.522" stroke="#000000" stroke-width="3.4375" stroke-linejoin="round" stroke-miterlimit="10" fill="none"/></g><g><path d="M503.5 1950.5 1435.5 1950.5" stroke="#000000" stroke-width="3.4375" stroke-linejoin="round" stroke-miterlimit="10" fill="none" fill-rule="evenodd"/></g><g><path d="M503.5 1950.5 503.5 1963.5M736.524 1950.5 736.524 1963.5M969.532 1950.5 969.532 1963.5M1202.54 1950.5 1202.54 1963.5M1435.5 1950.5 1435.5 1963.5" stroke="#000000" stroke-width="3.4375" stroke-linejoin="round" stroke-miterlimit="10" fill="none"/></g><g><path d="M890.529 1886.5 923.5 1821.56 913.53 1757.56 898.53 1693.56 882.529 1628.55 842.5 1564.5" stroke="#4472C4" stroke-width="6.875" stroke-linecap="round" stroke-linejoin="round" stroke-miterlimit="10" fill="none"/></g><g><path d="M901.865 1886.57C901.865 1892.64 896.94 1897.56 890.865 1897.56 884.79 1897.56 879.866 1892.64 879.866 1886.57 879.866 1880.49 884.79 1875.57 890.865 1875.57 896.94 1875.57 901.865 1880.49 901.865 1886.57Z" stroke="#4472C4" stroke-width="3.4375" stroke-linejoin="round" stroke-miterlimit="10" fill="#4472C4"/><path d="M934.865 1821.57C934.865 1827.64 929.94 1832.56 923.865 1832.56 917.79 1832.56 912.866 1827.64 912.866 1821.57 912.866 1815.49 917.79 1810.57 923.865 1810.57 929.94 1810.57 934.865 1815.49 934.865 1821.57Z" stroke="#4472C4" stroke-width="3.4375" stroke-linejoin="round" stroke-miterlimit="10" fill="#4472C4"/><path d="M924.865 1757.57C924.865 1763.64 919.94 1768.56 913.865 1768.56 907.791 1768.56 902.866 1763.64 902.866 1757.57 902.866 1751.49 907.791 1746.57 913.865 1746.57 919.94 1746.57 924.865 1751.49 924.865 1757.57Z" stroke="#4472C4" stroke-width="3.4375" stroke-linejoin="round" stroke-miterlimit="10" fill="#4472C4"/><path d="M909.865 1693.57C909.865 1699.64 904.94 1704.56 898.865 1704.56 892.79 1704.56 887.866 1699.64 887.866 1693.57 887.866 1687.49 892.79 1682.57 898.865 1682.57 904.94 1682.57 909.865 1687.49 909.865 1693.57Z" stroke="#4472C4" stroke-width="3.4375" stroke-linejoin="round" stroke-miterlimit="10" fill="#4472C4"/><path d="M893.865 1628.57C893.865 1634.64 888.94 1639.56 882.865 1639.56 876.79 1639.56 871.865 1634.64 871.865 1628.57 871.865 1622.49 876.79 1617.57 882.865 1617.57 888.94 1617.57 893.865 1622.49 893.865 1628.57Z" stroke="#4472C4" stroke-width="3.4375" stroke-linejoin="round" stroke-miterlimit="10" fill="#4472C4"/><path d="M853.865 1564.56C853.865 1570.64 848.94 1575.56 842.865 1575.56 836.79 1575.56 831.866 1570.64 831.866 1564.56 831.866 1558.49 836.79 1553.57 842.865 1553.57 848.94 1553.57 853.865 1558.49 853.865 1564.56Z" stroke="#4472C4" stroke-width="3.4375" stroke-linejoin="round" stroke-miterlimit="10" fill="#4472C4"/></g><g><path d="M673.5 1500.5 677.522 1435.55 682.523 1371.55 700.523 1306.54 718.524 1242.54 737.524 1178.54 739.5 1113.54 737.524 1049.53 737.524 985.532 737.524 920.53 730.524 856.5" stroke="#ED7D31" stroke-width="6.875" stroke-linecap="round" stroke-linejoin="round" stroke-miterlimit="10" fill="none"/></g><g><path d="M684.865 1500.56C684.865 1506.64 679.94 1511.56 673.865 1511.56 667.79 1511.56 662.865 1506.64 662.865 1500.56 662.865 1494.49 667.79 1489.57 673.865 1489.57 679.94 1489.57 684.865 1494.49 684.865 1500.56Z" stroke="#ED7D31" stroke-width="3.4375" stroke-linejoin="round" stroke-miterlimit="10" fill="#ED7D31"/><path d="M688.865 1435.57C688.865 1441.64 683.94 1446.56 677.865 1446.56 671.79 1446.56 666.866 1441.64 666.866 1435.57 666.866 1429.49 671.79 1424.57 677.865 1424.57 683.94 1424.57 688.865 1429.49 688.865 1435.57Z" stroke="#ED7D31" stroke-width="3.4375" stroke-linejoin="round" stroke-miterlimit="10" fill="#ED7D31"/><path d="M693.865 1371.57C693.865 1377.64 688.94 1382.56 682.865 1382.56 676.791 1382.56 671.866 1377.64 671.866 1371.57 671.866 1365.49 676.791 1360.57 682.865 1360.57 688.94 1360.57 693.865 1365.49 693.865 1371.57Z" stroke="#ED7D31" stroke-width="3.4375" stroke-linejoin="round" stroke-miterlimit="10" fill="#ED7D31"/><path d="M711.865 1306.57C711.865 1312.64 706.94 1317.56 700.865 1317.56 694.79 1317.56 689.866 1312.64 689.866 1306.57 689.866 1300.49 694.79 1295.57 700.865 1295.57 706.94 1295.57 711.865 1300.49 711.865 1306.57Z" stroke="#ED7D31" stroke-width="3.4375" stroke-linejoin="round" stroke-miterlimit="10" fill="#ED7D31"/><path d="M729.865 1242.57C729.865 1248.64 724.94 1253.56 718.865 1253.56 712.79 1253.56 707.865 1248.64 707.865 1242.57 707.865 1236.49 712.79 1231.57 718.865 1231.57 724.94 1231.57 729.865 1236.49 729.865 1242.57Z" stroke="#ED7D31" stroke-width="3.4375" stroke-linejoin="round" stroke-miterlimit="10" fill="#ED7D31"/><path d="M748.865 1178.56C748.865 1184.64 743.94 1189.56 737.865 1189.56 731.791 1189.56 726.866 1184.64 726.866 1178.56 726.866 1172.49 731.791 1167.57 737.865 1167.57 743.94 1167.57 748.865 1172.49 748.865 1178.56Z" stroke="#ED7D31" stroke-width="3.4375" stroke-linejoin="round" stroke-miterlimit="10" fill="#ED7D31"/><path d="M750.865 1113.56C750.865 1119.64 745.94 1124.56 739.865 1124.56 733.79 1124.56 728.865 1119.64 728.865 1113.56 728.865 1107.49 733.79 1102.57 739.865 1102.57 745.94 1102.57 750.865 1107.49 750.865 1113.56Z" stroke="#ED7D31" stroke-width="3.4375" stroke-linejoin="round" stroke-miterlimit="10" fill="#ED7D31"/><path d="M748.865 1049.56C748.865 1055.64 743.94 1060.56 737.865 1060.56 731.791 1060.56 726.866 1055.64 726.866 1049.56 726.866 1043.49 731.791 1038.57 737.865 1038.57 743.94 1038.57 748.865 1043.49 748.865 1049.56Z" stroke="#ED7D31" stroke-width="3.4375" stroke-linejoin="round" stroke-miterlimit="10" fill="#ED7D31"/><path d="M748.865 985.565C748.865 991.64 743.94 996.565 737.865 996.565 731.791 996.565 726.866 991.64 726.866 985.565 726.866 979.49 731.791 974.565 737.865 974.565 743.94 974.565 748.865 979.49 748.865 985.565Z" stroke="#ED7D31" stroke-width="3.4375" stroke-linejoin="round" stroke-miterlimit="10" fill="#ED7D31"/><path d="M748.865 920.565C748.865 926.64 743.94 931.565 737.865 931.565 731.791 931.565 726.866 926.64 726.866 920.565 726.866 914.49 731.791 909.565 737.865 909.565 743.94 909.565 748.865 914.49 748.865 920.565Z" stroke="#ED7D31" stroke-width="3.4375" stroke-linejoin="round" stroke-miterlimit="10" fill="#ED7D31"/><path d="M741.865 856.565C741.865 862.64 736.94 867.565 730.865 867.565 724.79 867.565 719.866 862.64 719.866 856.565 719.866 850.49 724.79 845.565 730.865 845.565 736.94 845.565 741.865 850.49 741.865 856.565Z" stroke="#ED7D31" stroke-width="3.4375" stroke-linejoin="round" stroke-miterlimit="10" fill="#ED7D31"/></g><g><path d="M671.5 791.5 832.527 727.524 1010.53 663.522 1048.5 598.52 1010.53 534.518 778.526 470.5" stroke="#FFC000" stroke-width="6.875" stroke-linecap="round" stroke-linejoin="round" stroke-miterlimit="10" fill="none"/></g><g><path d="M684.365 792.565C684.365 798.916 679.216 804.065 672.865 804.065 666.514 804.065 661.365 798.916 661.365 792.565 661.365 786.214 666.514 781.065 672.865 781.065 679.216 781.065 684.365 786.214 684.365 792.565Z" fill="#FFC000"/><path d="M845.365 728.565C845.365 734.916 840.216 740.065 833.865 740.065 827.514 740.065 822.365 734.916 822.365 728.565 822.365 722.214 827.514 717.065 833.865 717.065 840.216 717.065 845.365 722.214 845.365 728.565Z" fill="#FFC000"/><path d="M1022.37 663.565C1022.37 669.916 1017.22 675.065 1010.87 675.065 1004.51 675.065 999.366 669.916 999.366 663.565 999.366 657.214 1004.51 652.065 1010.87 652.065 1017.22 652.065 1022.37 657.214 1022.37 663.565Z" fill="#FFC000"/><path d="M1060.36 599.565C1060.36 605.916 1055.22 611.065 1048.87 611.065 1042.51 611.065 1037.37 605.916 1037.37 599.565 1037.37 593.214 1042.51 588.065 1048.87 588.065 1055.22 588.065 1060.36 593.214 1060.36 599.565Z" fill="#FFC000"/><path d="M1022.37 534.565C1022.37 540.916 1017.22 546.065 1010.87 546.065 1004.51 546.065 999.366 540.916 999.366 534.565 999.366 528.214 1004.51 523.065 1010.87 523.065 1017.22 523.065 1022.37 528.214 1022.37 534.565Z" fill="#FFC000"/><path d="M790.365 470.565C790.365 476.916 785.216 482.065 778.865 482.065 772.514 482.065 767.365 476.916 767.365 470.565 767.365 464.214 772.514 459.065 778.865 459.065 785.216 459.065 790.365 464.214 790.365 470.565Z" fill="#FFC000"/></g><g><text fill="#404040" font-family="Calibri,Calibri_MSFontService,sans-serif" font-weight="400" font-size="41" transform="matrix(1 0 0 1 426.375 1900)">L5</text></g><g><text fill="#404040" font-family="Calibri,Calibri_MSFontService,sans-serif" font-weight="400" font-size="41" transform="matrix(1 0 0 1 426.375 1836)">L4</text></g><g><text fill="#404040" font-family="Calibri,Calibri_MSFontService,sans-serif" font-weight="400" font-size="41" transform="matrix(1 0 0 1 426.375 1771)">L3</text></g><g><text fill="#404040" font-family="Calibri,Calibri_MSFontService,sans-serif" font-weight="400" font-size="41" transform="matrix(1 0 0 1 426.375 1707)">L2</text></g><g><text fill="#404040" font-family="Calibri,Calibri_MSFontService,sans-serif" font-weight="400" font-size="41" transform="matrix(1 0 0 1 426.375 1643)">L1</text></g><g><text fill="#404040" font-family="Calibri,Calibri_MSFontService,sans-serif" font-weight="400" font-size="41" transform="matrix(1 0 0 1 416.115 1578)">T12</text></g><g><text fill="#404040" font-family="Calibri,Calibri_MSFontService,sans-serif" font-weight="400" font-size="41" transform="matrix(1 0 0 1 416.115 1514)">T11</text></g><g><text fill="#404040" font-family="Calibri,Calibri_MSFontService,sans-serif" font-weight="400" font-size="41" transform="matrix(1 0 0 1 416.115 1450)">T10</text></g><g><text fill="#404040" font-family="Calibri,Calibri_MSFontService,sans-serif" font-weight="400" font-size="41" transform="matrix(1 0 0 1 423.625 1385)">T9</text></g><g><text fill="#404040" font-family="Calibri,Calibri_MSFontService,sans-serif" font-weight="400" font-size="41" transform="matrix(1 0 0 1 423.625 1321)">T8</text></g><g><text fill="#404040" font-family="Calibri,Calibri_MSFontService,sans-serif" font-weight="400" font-size="41" transform="matrix(1 0 0 1 423.625 1256)">T7</text></g><g><text fill="#404040" font-family="Calibri,Calibri_MSFontService,sans-serif" font-weight="400" font-size="41" transform="matrix(1 0 0 1 423.625 1192)">T6</text></g><g><text fill="#404040" font-family="Calibri,Calibri_MSFontService,sans-serif" font-weight="400" font-size="41" transform="matrix(1 0 0 1 423.625 1128)">T5</text></g><g><text fill="#404040" font-family="Calibri,Calibri_MSFontService,sans-serif" font-weight="400" font-size="41" transform="matrix(1 0 0 1 423.625 1063)">T4</text></g><g><text fill="#404040" font-family="Calibri,Calibri_MSFontService,sans-serif" font-weight="400" font-size="41" transform="matrix(1 0 0 1 423.625 999)">T3</text></g><g><text fill="#404040" font-family="Calibri,Calibri_MSFontService,sans-serif" font-weight="400" font-size="41" transform="matrix(1 0 0 1 423.625 935)">T2</text></g><g><text fill="#404040" font-family="Calibri,Calibri_MSFontService,sans-serif" font-weight="400" font-size="41" transform="matrix(1 0 0 1 423.625 870)">T1</text></g><g><text fill="#404040" font-family="Calibri,Calibri_MSFontService,sans-serif" font-weight="400" font-size="41" transform="matrix(1 0 0 1 421.723 806)">C7</text></g><g><text fill="#404040" font-family="Calibri,Calibri_MSFontService,sans-serif" font-weight="400" font-size="41" transform="matrix(1 0 0 1 421.723 741)">C6</text></g><g><text fill="#404040" font-family="Calibri,Calibri_MSFontService,sans-serif" font-weight="400" font-size="41" transform="matrix(1 0 0 1 421.723 677)">C5</text></g><g><text fill="#404040" font-family="Calibri,Calibri_MSFontService,sans-serif" font-weight="400" font-size="41" transform="matrix(1 0 0 1 421.723 613)">C4</text></g><g><text fill="#404040" font-family="Calibri,Calibri_MSFontService,sans-serif" font-weight="400" font-size="41" transform="matrix(1 0 0 1 421.723 548)">C3</text></g><g><text fill="#404040" font-family="Calibri,Calibri_MSFontService,sans-serif" font-weight="400" font-size="41" transform="matrix(1 0 0 1 421.723 484)">C2</text></g><g><text fill="#595959" font-family="Calibri,Calibri_MSFontService,sans-serif" font-weight="400" font-size="41" transform="matrix(1 0 0 1 478.385 2016)">0%</text></g><g><text fill="#595959" font-family="Calibri,Calibri_MSFontService,sans-serif" font-weight="400" font-size="41" transform="matrix(1 0 0 1 700.973 2016)">10%</text></g><g><text fill="#595959" font-family="Calibri,Calibri_MSFontService,sans-serif" font-weight="400" font-size="41" transform="matrix(1 0 0 1 934.01 2016)">20%</text></g><g><text fill="#595959" font-family="Calibri,Calibri_MSFontService,sans-serif" font-weight="400" font-size="41" transform="matrix(1 0 0 1 1167.05 2016)">30%</text></g><g><text fill="#595959" font-family="Calibri,Calibri_MSFontService,sans-serif" font-weight="400" font-size="41" transform="matrix(1 0 0 1 1400.09 2016)">40%</text></g><g><text fill="#595959" font-family="Calibri,Calibri_MSFontService,sans-serif" font-weight="700" font-size="46" transform="matrix(1 0 0 1 596.929 2085)">Relateive Axial rotation of the vertebra</text></g><g><text fill="#595959" font-family="Calibri,Calibri_MSFontService,sans-serif" font-weight="400" font-size="46" transform="matrix(1 0 0 1 654.083 2141)">Each part has ROM equal to 100%</text></g></g></svg>