<svg width="1044" height="523" xmlns="http://www.w3.org/2000/svg" xmlns:xlink="http://www.w3.org/1999/xlink" xml:space="preserve" overflow="hidden"><defs><clipPath id="clip0"><rect x="315" y="2632" width="1044" height="523"/></clipPath></defs><g clip-path="url(#clip0)" transform="translate(-315 -2632)"><rect x="316" y="2633" width="1041" height="520" fill="#FFFFFF"/><g><path d="M702.523 2682.5 702.523 2986.5M894.53 2682.5 894.53 2986.5M1086.54 2682.5 1086.54 2986.5M1278.5 2682.5 1278.5 2986.5" stroke="#D9D9D9" stroke-width="3.4375" stroke-linejoin="round" stroke-miterlimit="10" fill="none"/></g><g><rect x="511" y="2935" width="196" height="27.0002" fill="#4472C4"/></g><g><rect x="511" y="2783" width="587" height="27.0002" fill="#FFC000"/></g><g><rect x="511" y="2707" width="522" height="26.9998" fill="#70AD47"/></g><g><path d="M1124.04 2886.09 511 2886.09 511 2859.09 1124.04 2859.09Z" fill="#ED7D31"/></g><g><path d="M0 0 0.000360892 304" stroke="#D9D9D9" stroke-width="3.4375" stroke-linejoin="round" stroke-miterlimit="10" fill="none" fill-rule="evenodd" transform="matrix(1 0 0 -1 510.5 2986.5)"/></g><g><text fill="#595959" font-family="Calibri,Calibri_MSFontService,sans-serif" font-weight="400" font-size="41" transform="matrix(1 0 0 1 469.998 3051)">0,0%</text></g><g><text fill="#595959" font-family="Calibri,Calibri_MSFontService,sans-serif" font-weight="400" font-size="41" transform="matrix(1 0 0 1 651.481 3051)">10,0%</text></g><g><text fill="#595959" font-family="Calibri,Calibri_MSFontService,sans-serif" font-weight="400" font-size="41" transform="matrix(1 0 0 1 843.413 3051)">20,0%</text></g><g><text fill="#595959" font-family="Calibri,Calibri_MSFontService,sans-serif" font-weight="400" font-size="41" transform="matrix(1 0 0 1 1035.34 3051)">30,0%</text></g><g><text fill="#595959" font-family="Calibri,Calibri_MSFontService,sans-serif" font-weight="400" font-size="41" transform="matrix(1 0 0 1 1227.28 3051)">40,0%</text></g><g><text fill="#595959" font-family="Calibri,Calibri_MSFontService,sans-serif" font-weight="400" font-size="41" transform="matrix(1 0 0 1 344.717 2960)">Lumbar</text></g><g><text fill="#595959" font-family="Calibri,Calibri_MSFontService,sans-serif" font-weight="400" font-size="41" transform="matrix(1 0 0 1 330.508 2884)">Thoracic</text></g><g><text fill="#595959" font-family="Calibri,Calibri_MSFontService,sans-serif" font-weight="400" font-size="41" transform="matrix(1 0 0 1 340.843 2808)">Cervical</text></g><g><text fill="#595959" font-family="Calibri,Calibri_MSFontService,sans-serif" font-weight="400" font-size="41" transform="matrix(1 0 0 1 374.096 2732)">C1-C2</text></g><g><g><text fill="#595959" font-family="Calibri,Calibri_MSFontService,sans-serif" font-weight="400" font-size="46" transform="matrix(1 0 0 1 684.6 3120)">Relative Axial Rotation </text></g></g><g><g><text fill="#595959" font-family="Calibri,Calibri_MSFontService,sans-serif" font-weight="400" font-size="46" transform="matrix(1 0 0 1 1104.8 3120)">…</text></g></g><rect x="316.5" y="2633.5" width="1041" height="520" stroke="#D9D9D9" stroke-width="3.4375" stroke-linejoin="round" stroke-miterlimit="10" fill="none"/></g></svg>