<svg width="1097" height="1811" xmlns="http://www.w3.org/2000/svg" xmlns:xlink="http://www.w3.org/1999/xlink" xml:space="preserve" overflow="hidden"><defs><clipPath id="clip0"><rect x="1499" y="433" width="1097" height="1811"/></clipPath></defs><g clip-path="url(#clip0)" transform="translate(-1499 -433)"><rect x="1499" y="433" width="1097" height="1811" fill="#FFFFFF"/><g><path d="M0 0 0.000360892 1512" stroke="#000000" stroke-width="3.4375" stroke-linejoin="round" stroke-miterlimit="10" fill="none" fill-rule="evenodd" transform="matrix(1 0 0 -1 1600.5 1953.5)"/></g><g><path d="M1590.55 1953.5 1600.5 1953.5M1590.55 1888.56 1600.5 1888.56M1590.55 1824.56 1600.5 1824.56M1590.55 1760.56 1600.5 1760.56M1590.55 1695.56 1600.5 1695.56M1590.55 1631.55 1600.5 1631.55M1590.55 1567.55 1600.5 1567.55M1590.55 1502.55 1600.5 1502.55M1590.55 1438.55 1600.5 1438.55M1590.55 1374.55 1600.5 1374.55M1590.55 1309.54 1600.5 1309.54M1590.55 1245.54 1600.5 1245.54M1590.55 1181.54 1600.5 1181.54M1590.55 1116.54 1600.5 1116.54M1590.55 1052.53 1600.5 1052.53M1590.55 988.533 1600.5 988.533M1590.55 924.531 1600.5 924.531M1590.55 859.528 1600.5 859.528M1590.55 795.526 1600.5 795.526M1590.55 731.524 1600.5 731.524M1590.55 666.522 1600.5 666.522M1590.55 602.52 1600.5 602.52M1590.55 538.518 1600.5 538.518M1590.55 473.5 1600.5 473.5M1587.5 1953.5 1600.5 1953.5M1587.5 1631.55 1600.5 1631.55M1587.5 1309.54 1600.5 1309.54M1587.5 988.533 1600.5 988.533M1587.5 666.522 1600.5 666.522" stroke="#000000" stroke-width="3.4375" stroke-linejoin="round" stroke-miterlimit="10" fill="none"/></g><g><path d="M1600.5 1953.5 2532.5 1953.5" stroke="#000000" stroke-width="3.4375" stroke-linejoin="round" stroke-miterlimit="10" fill="none" fill-rule="evenodd"/></g><g><path d="M1600.5 1953.5 1600.5 1966.5M1833.56 1953.5 1833.56 1966.5M2066.57 1953.5 2066.57 1966.5M2299.58 1953.5 2299.58 1966.5M2532.5 1953.5 2532.5 1966.5" stroke="#000000" stroke-width="3.4375" stroke-linejoin="round" stroke-miterlimit="10" fill="none"/></g><g><path d="M1880.5 1888.5 2033.57 1824.56 2082.5 1760.56 2036.57 1695.56 1987.57 1631.55 1910.56 1567.5" stroke="#4472C4" stroke-width="6.875" stroke-linecap="round" stroke-linejoin="round" stroke-miterlimit="10" fill="none"/></g><g><path d="M1891.82 1888.9C1891.82 1894.98 1886.89 1899.9 1880.82 1899.9 1874.74 1899.9 1869.82 1894.98 1869.82 1888.9 1869.82 1882.83 1874.74 1877.9 1880.82 1877.9 1886.89 1877.9 1891.82 1882.83 1891.82 1888.9Z" stroke="#4472C4" stroke-width="3.4375" stroke-linejoin="round" stroke-miterlimit="10" fill="#4472C4"/><path d="M2044.82 1824.9C2044.82 1830.98 2039.89 1835.9 2033.82 1835.9 2027.74 1835.9 2022.82 1830.98 2022.82 1824.9 2022.82 1818.83 2027.74 1813.9 2033.82 1813.9 2039.89 1813.9 2044.82 1818.83 2044.82 1824.9Z" stroke="#4472C4" stroke-width="3.4375" stroke-linejoin="round" stroke-miterlimit="10" fill="#4472C4"/><path d="M2093.82 1760.9C2093.82 1766.98 2088.89 1771.9 2082.82 1771.9 2076.74 1771.9 2071.82 1766.98 2071.82 1760.9 2071.82 1754.83 2076.74 1749.9 2082.82 1749.9 2088.89 1749.9 2093.82 1754.83 2093.82 1760.9Z" stroke="#4472C4" stroke-width="3.4375" stroke-linejoin="round" stroke-miterlimit="10" fill="#4472C4"/><path d="M2047.82 1695.9C2047.82 1701.98 2042.89 1706.9 2036.82 1706.9 2030.74 1706.9 2025.82 1701.98 2025.82 1695.9 2025.82 1689.83 2030.74 1684.9 2036.82 1684.9 2042.89 1684.9 2047.82 1689.83 2047.82 1695.9Z" stroke="#4472C4" stroke-width="3.4375" stroke-linejoin="round" stroke-miterlimit="10" fill="#4472C4"/><path d="M1998.82 1631.9C1998.82 1637.98 1993.89 1642.9 1987.82 1642.9 1981.74 1642.9 1976.82 1637.98 1976.82 1631.9 1976.82 1625.83 1981.74 1620.9 1987.82 1620.9 1993.89 1620.9 1998.82 1625.83 1998.82 1631.9Z" stroke="#4472C4" stroke-width="3.4375" stroke-linejoin="round" stroke-miterlimit="10" fill="#4472C4"/><path d="M1921.82 1567.9C1921.82 1573.98 1916.89 1578.9 1910.82 1578.9 1904.74 1578.9 1899.82 1573.98 1899.82 1567.9 1899.82 1561.83 1904.74 1556.9 1910.82 1556.9 1916.89 1556.9 1921.82 1561.83 1921.82 1567.9Z" stroke="#4472C4" stroke-width="3.4375" stroke-linejoin="round" stroke-miterlimit="10" fill="#4472C4"/></g><g><path d="M1910.5 1502.5 1875.56 1438.55 1859.56 1374.55 1835.56 1309.54 1805.56 1245.54 1786.56 1181.54 1770.56 1116.54 1758.5 1052.53 1765.56 988.533 1772.56 924.531 1793.56 859.5" stroke="#ED7D31" stroke-width="6.875" stroke-linecap="round" stroke-linejoin="round" stroke-miterlimit="10" fill="none"/></g><g><path d="M1921.82 1502.9C1921.82 1508.98 1916.89 1513.9 1910.82 1513.9 1904.74 1513.9 1899.82 1508.98 1899.82 1502.9 1899.82 1496.83 1904.74 1491.9 1910.82 1491.9 1916.89 1491.9 1921.82 1496.83 1921.82 1502.9Z" stroke="#ED7D31" stroke-width="3.4375" stroke-linejoin="round" stroke-miterlimit="10" fill="#ED7D31"/><path d="M1886.82 1438.9C1886.82 1444.98 1881.89 1449.9 1875.82 1449.9 1869.74 1449.9 1864.82 1444.98 1864.82 1438.9 1864.82 1432.83 1869.74 1427.9 1875.82 1427.9 1881.89 1427.9 1886.82 1432.83 1886.82 1438.9Z" stroke="#ED7D31" stroke-width="3.4375" stroke-linejoin="round" stroke-miterlimit="10" fill="#ED7D31"/><path d="M1870.82 1374.9C1870.82 1380.98 1865.89 1385.9 1859.82 1385.9 1853.74 1385.9 1848.82 1380.98 1848.82 1374.9 1848.82 1368.83 1853.74 1363.9 1859.82 1363.9 1865.89 1363.9 1870.82 1368.83 1870.82 1374.9Z" stroke="#ED7D31" stroke-width="3.4375" stroke-linejoin="round" stroke-miterlimit="10" fill="#ED7D31"/><path d="M1846.82 1309.9C1846.82 1315.98 1841.89 1320.9 1835.82 1320.9 1829.74 1320.9 1824.82 1315.98 1824.82 1309.9 1824.82 1303.83 1829.74 1298.9 1835.82 1298.9 1841.89 1298.9 1846.82 1303.83 1846.82 1309.9Z" stroke="#ED7D31" stroke-width="3.4375" stroke-linejoin="round" stroke-miterlimit="10" fill="#ED7D31"/><path d="M1816.82 1245.9C1816.82 1251.98 1811.89 1256.9 1805.82 1256.9 1799.74 1256.9 1794.82 1251.98 1794.82 1245.9 1794.82 1239.83 1799.74 1234.9 1805.82 1234.9 1811.89 1234.9 1816.82 1239.83 1816.82 1245.9Z" stroke="#ED7D31" stroke-width="3.4375" stroke-linejoin="round" stroke-miterlimit="10" fill="#ED7D31"/><path d="M1797.82 1181.9C1797.82 1187.98 1792.89 1192.9 1786.82 1192.9 1780.74 1192.9 1775.82 1187.98 1775.82 1181.9 1775.82 1175.83 1780.74 1170.9 1786.82 1170.9 1792.89 1170.9 1797.82 1175.83 1797.82 1181.9Z" stroke="#ED7D31" stroke-width="3.4375" stroke-linejoin="round" stroke-miterlimit="10" fill="#ED7D31"/><path d="M1781.82 1117.9C1781.82 1123.98 1776.89 1128.9 1770.82 1128.9 1764.74 1128.9 1759.82 1123.98 1759.82 1117.9 1759.82 1111.83 1764.74 1106.9 1770.82 1106.9 1776.89 1106.9 1781.82 1111.83 1781.82 1117.9Z" stroke="#ED7D31" stroke-width="3.4375" stroke-linejoin="round" stroke-miterlimit="10" fill="#ED7D31"/><path d="M1769.82 1052.9C1769.82 1058.98 1764.89 1063.9 1758.82 1063.9 1752.74 1063.9 1747.82 1058.98 1747.82 1052.9 1747.82 1046.83 1752.74 1041.9 1758.82 1041.9 1764.89 1041.9 1769.82 1046.83 1769.82 1052.9Z" stroke="#ED7D31" stroke-width="3.4375" stroke-linejoin="round" stroke-miterlimit="10" fill="#ED7D31"/><path d="M1776.82 988.904C1776.82 994.979 1771.89 999.904 1765.82 999.904 1759.74 999.904 1754.82 994.979 1754.82 988.904 1754.82 982.829 1759.74 977.905 1765.82 977.905 1771.89 977.905 1776.82 982.829 1776.82 988.904Z" stroke="#ED7D31" stroke-width="3.4375" stroke-linejoin="round" stroke-miterlimit="10" fill="#ED7D31"/><path d="M1783.82 924.904C1783.82 930.979 1778.89 935.904 1772.82 935.904 1766.74 935.904 1761.82 930.979 1761.82 924.904 1761.82 918.829 1766.74 913.905 1772.82 913.905 1778.89 913.905 1783.82 918.829 1783.82 924.904Z" stroke="#ED7D31" stroke-width="3.4375" stroke-linejoin="round" stroke-miterlimit="10" fill="#ED7D31"/><path d="M1804.82 859.904C1804.82 865.979 1799.89 870.904 1793.82 870.904 1787.74 870.904 1782.82 865.979 1782.82 859.904 1782.82 853.829 1787.74 848.904 1793.82 848.904 1799.89 848.904 1804.82 853.829 1804.82 859.904Z" stroke="#ED7D31" stroke-width="3.4375" stroke-linejoin="round" stroke-miterlimit="10" fill="#ED7D31"/></g><g><path d="M1887.5 795.5 1982.57 731.524 2017.57 666.522 2043.5 602.52 2022.57 538.518 1980.57 473.5" stroke="#FFC000" stroke-width="6.875" stroke-linecap="round" stroke-linejoin="round" stroke-miterlimit="10" fill="none"/></g><g><path d="M1899.32 795.904C1899.32 802.255 1894.17 807.404 1887.82 807.404 1881.47 807.404 1876.32 802.255 1876.32 795.904 1876.32 789.553 1881.47 784.404 1887.82 784.404 1894.17 784.404 1899.32 789.553 1899.32 795.904Z" fill="#FFC000"/><path d="M1995.32 731.904C1995.32 738.255 1990.17 743.404 1983.82 743.404 1977.47 743.404 1972.32 738.255 1972.32 731.904 1972.32 725.553 1977.47 720.404 1983.82 720.404 1990.17 720.404 1995.32 725.553 1995.32 731.904Z" fill="#FFC000"/><path d="M2030.32 667.904C2030.32 674.255 2025.17 679.404 2018.82 679.404 2012.47 679.404 2007.32 674.255 2007.32 667.904 2007.32 661.553 2012.47 656.404 2018.82 656.404 2025.17 656.404 2030.32 661.553 2030.32 667.904Z" fill="#FFC000"/><path d="M2055.32 602.904C2055.32 609.255 2050.17 614.404 2043.82 614.404 2037.47 614.404 2032.32 609.255 2032.32 602.904 2032.32 596.553 2037.47 591.404 2043.82 591.404 2050.17 591.404 2055.32 596.553 2055.32 602.904Z" fill="#FFC000"/><path d="M2034.32 538.904C2034.32 545.256 2029.17 550.404 2022.82 550.404 2016.47 550.404 2011.32 545.256 2011.32 538.904 2011.32 532.553 2016.47 527.405 2022.82 527.405 2029.17 527.405 2034.32 532.553 2034.32 538.904Z" fill="#FFC000"/><path d="M1992.32 474.904C1992.32 481.255 1987.17 486.404 1980.82 486.404 1974.47 486.404 1969.32 481.255 1969.32 474.904 1969.32 468.553 1974.47 463.404 1980.82 463.404 1987.17 463.404 1992.32 468.553 1992.32 474.904Z" fill="#FFC000"/></g><g><text fill="#404040" font-family="Calibri,Calibri_MSFontService,sans-serif" font-weight="400" font-size="41" transform="matrix(1 0 0 1 1523.33 1903)">L5</text></g><g><text fill="#404040" font-family="Calibri,Calibri_MSFontService,sans-serif" font-weight="400" font-size="41" transform="matrix(1 0 0 1 1523.33 1838)">L4</text></g><g><text fill="#404040" font-family="Calibri,Calibri_MSFontService,sans-serif" font-weight="400" font-size="41" transform="matrix(1 0 0 1 1523.33 1774)">L3</text></g><g><text fill="#404040" font-family="Calibri,Calibri_MSFontService,sans-serif" font-weight="400" font-size="41" transform="matrix(1 0 0 1 1523.33 1710)">L2</text></g><g><text fill="#404040" font-family="Calibri,Calibri_MSFontService,sans-serif" font-weight="400" font-size="41" transform="matrix(1 0 0 1 1523.33 1645)">L1</text></g><g><text fill="#404040" font-family="Calibri,Calibri_MSFontService,sans-serif" font-weight="400" font-size="41" transform="matrix(1 0 0 1 1513.07 1581)">T12</text></g><g><text fill="#404040" font-family="Calibri,Calibri_MSFontService,sans-serif" font-weight="400" font-size="41" transform="matrix(1 0 0 1 1513.07 1517)">T11</text></g><g><text fill="#404040" font-family="Calibri,Calibri_MSFontService,sans-serif" font-weight="400" font-size="41" transform="matrix(1 0 0 1 1513.07 1452)">T10</text></g><g><text fill="#404040" font-family="Calibri,Calibri_MSFontService,sans-serif" font-weight="400" font-size="41" transform="matrix(1 0 0 1 1520.58 1388)">T9</text></g><g><text fill="#404040" font-family="Calibri,Calibri_MSFontService,sans-serif" font-weight="400" font-size="41" transform="matrix(1 0 0 1 1520.58 1324)">T8</text></g><g><text fill="#404040" font-family="Calibri,Calibri_MSFontService,sans-serif" font-weight="400" font-size="41" transform="matrix(1 0 0 1 1520.58 1259)">T7</text></g><g><text fill="#404040" font-family="Calibri,Calibri_MSFontService,sans-serif" font-weight="400" font-size="41" transform="matrix(1 0 0 1 1520.58 1195)">T6</text></g><g><text fill="#404040" font-family="Calibri,Calibri_MSFontService,sans-serif" font-weight="400" font-size="41" transform="matrix(1 0 0 1 1520.58 1131)">T5</text></g><g><text fill="#404040" font-family="Calibri,Calibri_MSFontService,sans-serif" font-weight="400" font-size="41" transform="matrix(1 0 0 1 1520.58 1067)">T4</text></g><g><text fill="#404040" font-family="Calibri,Calibri_MSFontService,sans-serif" font-weight="400" font-size="41" transform="matrix(1 0 0 1 1520.58 1002)">T3</text></g><g><text fill="#404040" font-family="Calibri,Calibri_MSFontService,sans-serif" font-weight="400" font-size="41" transform="matrix(1 0 0 1 1520.58 938)">T2</text></g><g><text fill="#404040" font-family="Calibri,Calibri_MSFontService,sans-serif" font-weight="400" font-size="41" transform="matrix(1 0 0 1 1520.58 874)">T1</text></g><g><text fill="#404040" font-family="Calibri,Calibri_MSFontService,sans-serif" font-weight="400" font-size="41" transform="matrix(1 0 0 1 1518.68 809)">C7</text></g><g><text fill="#404040" font-family="Calibri,Calibri_MSFontService,sans-serif" font-weight="400" font-size="41" transform="matrix(1 0 0 1 1518.68 745)">C6</text></g><g><text fill="#404040" font-family="Calibri,Calibri_MSFontService,sans-serif" font-weight="400" font-size="41" transform="matrix(1 0 0 1 1518.68 681)">C5</text></g><g><text fill="#404040" font-family="Calibri,Calibri_MSFontService,sans-serif" font-weight="400" font-size="41" transform="matrix(1 0 0 1 1518.68 616)">C4</text></g><g><text fill="#404040" font-family="Calibri,Calibri_MSFontService,sans-serif" font-weight="400" font-size="41" transform="matrix(1 0 0 1 1518.68 552)">C3</text></g><g><text fill="#404040" font-family="Calibri,Calibri_MSFontService,sans-serif" font-weight="400" font-size="41" transform="matrix(1 0 0 1 1518.68 488)">C2</text></g><g><text fill="#595959" font-family="Calibri,Calibri_MSFontService,sans-serif" font-weight="400" font-size="41" transform="matrix(1 0 0 1 1575.34 2018)">0%</text></g><g><text fill="#595959" font-family="Calibri,Calibri_MSFontService,sans-serif" font-weight="400" font-size="41" transform="matrix(1 0 0 1 1797.93 2018)">10%</text></g><g><text fill="#595959" font-family="Calibri,Calibri_MSFontService,sans-serif" font-weight="400" font-size="41" transform="matrix(1 0 0 1 2030.96 2018)">20%</text></g><g><text fill="#595959" font-family="Calibri,Calibri_MSFontService,sans-serif" font-weight="400" font-size="41" transform="matrix(1 0 0 1 2264 2018)">30%</text></g><g><text fill="#595959" font-family="Calibri,Calibri_MSFontService,sans-serif" font-weight="400" font-size="41" transform="matrix(1 0 0 1 2497.04 2018)">40%</text></g><g><text fill="#595959" font-family="Calibri,Calibri_MSFontService,sans-serif" font-weight="700" font-size="46" transform="matrix(1 0 0 1 1724.48 2087)">Relative Lateral bending of vertebra</text></g><g><text fill="#595959" font-family="Calibri,Calibri_MSFontService,sans-serif" font-weight="400" font-size="46" transform="matrix(1 0 0 1 1751.04 2143)">Each part has ROM equal to 100%</text></g></g></svg>