<svg width="1042" height="394" xmlns="http://www.w3.org/2000/svg" xmlns:xlink="http://www.w3.org/1999/xlink" xml:space="preserve" overflow="hidden"><defs><clipPath id="clip0"><rect x="1418" y="2726" width="1042" height="394"/></clipPath><clipPath id="clip1"><rect x="1613" y="2763" width="769" height="254"/></clipPath><clipPath id="clip2"><rect x="1613" y="2763" width="769" height="254"/></clipPath><clipPath id="clip3"><rect x="1613" y="2763" width="769" height="254"/></clipPath></defs><g clip-path="url(#clip0)" transform="translate(-1418 -2726)"><rect x="1419" y="2727" width="1039" height="391" fill="#FFFFFF"/><g><path d="M1766.56 2763.5 1766.56 3013.5M1919.56 2763.5 1919.56 3013.5M2072.57 2763.5 2072.57 3013.5M2226.57 2763.5 2226.57 3013.5M2379.5 2763.5 2379.5 3013.5" stroke="#D9D9D9" stroke-width="3.4375" stroke-linejoin="round" stroke-miterlimit="10" fill="none"/></g><g clip-path="url(#clip1)"><rect x="1613" y="2957" width="422" height="30" fill="#4472C4"/></g><g clip-path="url(#clip2)"><rect x="1613" y="2791" width="689" height="29.0002" fill="#FFC000"/></g><g clip-path="url(#clip3)"><path d="M2035.07 2903.1 1613 2903.1 1613 2874.09 2035.07 2874.09Z" fill="#ED7D31"/></g><g><path d="M0 0 0.000360892 250" stroke="#D9D9D9" stroke-width="3.4375" stroke-linejoin="round" stroke-miterlimit="10" fill="none" fill-rule="evenodd" transform="matrix(1 0 0 -1 1613.5 3013.5)"/></g><g><text fill="#595959" font-family="Calibri,Calibri_MSFontService,sans-serif" font-weight="400" font-size="41" transform="matrix(1 0 0 1 1572.27 3079)">0,0%</text></g><g><text fill="#595959" font-family="Calibri,Calibri_MSFontService,sans-serif" font-weight="400" font-size="41" transform="matrix(1 0 0 1 1715.11 3079)">10,0%</text></g><g><text fill="#595959" font-family="Calibri,Calibri_MSFontService,sans-serif" font-weight="400" font-size="41" transform="matrix(1 0 0 1 1868.4 3079)">20,0%</text></g><g><text fill="#595959" font-family="Calibri,Calibri_MSFontService,sans-serif" font-weight="400" font-size="41" transform="matrix(1 0 0 1 2021.69 3079)">30,0%</text></g><g><text fill="#595959" font-family="Calibri,Calibri_MSFontService,sans-serif" font-weight="400" font-size="41" transform="matrix(1 0 0 1 2174.98 3079)">40,0%</text></g><g><text fill="#595959" font-family="Calibri,Calibri_MSFontService,sans-serif" font-weight="400" font-size="41" transform="matrix(1 0 0 1 2328.27 3079)">50,0%</text></g><g><text fill="#595959" font-family="Calibri,Calibri_MSFontService,sans-serif" font-weight="400" font-size="41" transform="matrix(1 0 0 1 1446.99 2984)">Lumbar</text></g><g><text fill="#595959" font-family="Calibri,Calibri_MSFontService,sans-serif" font-weight="400" font-size="41" transform="matrix(1 0 0 1 1432.78 2900)">Thoracic</text></g><g><text fill="#595959" font-family="Calibri,Calibri_MSFontService,sans-serif" font-weight="400" font-size="41" transform="matrix(1 0 0 1 1443.12 2817)">Cervical</text></g><rect x="1419.5" y="2727.5" width="1039" height="391" stroke="#D9D9D9" stroke-width="3.4375" stroke-linejoin="round" stroke-miterlimit="10" fill="none"/></g></svg>